<svg width="71" height="40" viewBox="0 0 71 40" fill="none" xmlns="http://www.w3.org/2000/svg">
<path d="M51.7973 29.9029C51.2127 29.9029 50.6412 29.7297 50.155 29.4052C49.6689 29.0808 49.2901 28.6196 49.0663 28.0801C48.8426 27.5406 48.7841 26.9469 48.8981 26.3741C49.0122 25.8013 49.2937 25.2752 49.7071 24.8622C50.1205 24.4493 50.6472 24.1681 51.2206 24.0541C51.794 23.9402 52.3884 23.9987 52.9285 24.2222C53.4686 24.4456 53.9303 24.8241 54.2551 25.3097C54.5799 25.7952 54.7533 26.3661 54.7533 26.9501C54.7533 27.7332 54.4418 28.4843 53.8875 29.038C53.3331 29.5918 52.5813 29.9029 51.7973 29.9029ZM19.1461 29.9029C18.5615 29.9029 17.99 29.7297 17.5038 29.4052C17.0177 29.0808 16.6389 28.6196 16.4151 28.0801C16.1914 27.5406 16.1329 26.9469 16.2469 26.3741C16.361 25.8013 16.6425 25.2752 17.0559 24.8622C17.4693 24.4493 17.996 24.1681 18.5694 24.0541C19.1428 23.9402 19.7372 23.9987 20.2773 24.2222C20.8174 24.4456 21.2791 24.8241 21.6039 25.3097C21.9287 25.7952 22.1021 26.3661 22.1021 26.9501C22.1021 27.7332 21.7906 28.4843 21.2363 29.038C20.6819 29.5918 19.9301 29.9029 19.1461 29.9029ZM52.8565 12.1274L58.7611 1.91583C58.855 1.77598 58.9192 1.61835 58.9497 1.45271C58.9802 1.28707 58.9763 1.11694 58.9383 0.952863C58.9002 0.788785 58.8289 0.634252 58.7287 0.498835C58.6284 0.363418 58.5014 0.250002 58.3555 0.165609C58.2096 0.0812169 58.0479 0.0276466 57.8804 0.00821588C57.713 -0.0112148 57.5433 0.00390793 57.3819 0.0526478C57.2205 0.101388 57.0709 0.182706 56.9422 0.291568C56.8136 0.400429 56.7087 0.534514 56.634 0.685518L50.6556 11.0287C45.8801 8.88924 40.7055 7.78318 35.4717 7.78318C30.2379 7.78318 25.0633 8.88924 20.2878 11.0287L14.3094 0.685518C14.2347 0.534514 14.1298 0.400429 14.0012 0.291568C13.8725 0.182706 13.7229 0.101388 13.5615 0.0526478C13.4001 0.00390793 13.2304 -0.0112148 13.063 0.00821588C12.8955 0.0276466 12.7338 0.0812169 12.5879 0.165609C12.442 0.250002 12.315 0.363418 12.2147 0.498835C12.1145 0.634252 12.0431 0.788785 12.0051 0.952863C11.9671 1.11694 11.9632 1.28707 11.9937 1.45271C12.0242 1.61835 12.0884 1.77598 12.1823 1.91583L18.0869 12.1274C7.94788 17.6355 1.01488 27.8876 0 40H70.9434C69.9285 27.8876 62.9943 17.6355 52.8565 12.1274Z" fill="#AEB3B7"/>
</svg>
