<svg width="35" height="41" viewBox="0 0 35 41" fill="none" xmlns="http://www.w3.org/2000/svg">
<path d="M28.9451 21.1683C28.9273 17.8909 30.4097 15.4172 33.4102 13.5955C31.7313 11.1933 29.1952 9.87159 25.8463 9.61262C22.6761 9.36257 19.2112 11.4612 17.9431 11.4612C16.6036 11.4612 13.5316 9.70192 11.1205 9.70192C6.1374 9.78229 0.841797 13.6759 0.841797 21.5969C0.841797 23.9367 1.27045 26.3538 2.12774 28.8483C3.27081 32.1256 7.39656 40.1628 11.7009 40.0289C13.9513 39.9753 15.5409 38.4304 18.47 38.4304C21.3098 38.4304 22.7833 40.0289 25.2927 40.0289C29.6327 39.9664 33.3656 32.6615 34.4551 29.3751C28.6326 26.6336 28.9451 21.338 28.9451 21.1683ZM23.8906 6.50491C26.3286 3.61153 26.1053 0.977118 26.0339 0.0305176C23.8817 0.15554 21.3902 1.49507 19.9703 3.14716C18.4075 4.91533 17.4877 7.10323 17.6841 9.56797C20.0149 9.74657 22.1403 8.54992 23.8906 6.50491Z" fill="#AEB3B7"/>
</svg>
