<svg width="67" height="41" viewBox="0 0 67 41" fill="none" xmlns="http://www.w3.org/2000/svg">
<path d="M19.1235 14.5177C19.0486 16.8745 20.2265 17.9182 20.2556 18.581C20.2417 18.7159 20.1958 18.8455 20.1215 18.959C20.0473 19.0725 19.947 19.1666 19.829 19.2334L18.4971 20.1657C18.3247 20.2866 18.1216 20.3558 17.9113 20.3655C17.8665 20.3634 17.0591 20.5559 15.7803 17.7007C15.0001 18.6746 14.0074 19.4571 12.8782 19.9882C11.749 20.5194 10.5132 20.7851 9.26551 20.7651C7.57153 20.8577 2.98071 19.8036 3.21691 14.9162C3.05146 10.9331 6.76095 8.45871 10.5974 8.66786C11.3362 8.66994 12.8449 8.70636 15.4868 9.32027V7.69496C15.7667 4.94172 13.9573 2.80551 10.8242 3.12599C10.5745 3.12703 8.8056 3.07397 6.05443 4.17797C5.2886 4.52967 5.19079 4.4714 4.93586 4.4714C4.16483 4.4714 4.48219 2.23634 4.62995 1.95332C5.17206 1.28738 8.36129 0.0439419 11.4912 0.0616309C13.584 -0.123451 15.6655 0.522429 17.2859 1.85967C17.9446 2.59645 18.4471 3.45909 18.7631 4.3955C19.0792 5.3319 19.2021 6.32264 19.1245 7.30789L19.1235 14.5177V14.5177ZM10.1312 17.888C13.5057 17.8391 14.9343 15.8101 15.26 14.7175C15.516 13.6718 15.4733 13.01 15.4733 11.8665C14.4671 11.625 13.0187 11.3618 11.357 11.3597C9.78057 11.2411 6.90142 11.9455 7.0138 14.7165C6.88478 16.4635 8.17087 17.9837 10.1312 17.888V17.888ZM27.916 20.2864C27.0981 20.3613 26.7173 19.7807 26.5966 19.2074L21.4147 2.07506C21.3138 1.78579 21.2472 1.48716 21.215 1.18228C21.1959 1.05659 21.2274 0.928449 21.3027 0.826018C21.378 0.723586 21.4909 0.655243 21.6166 0.636004C21.6416 0.631841 21.395 0.636004 23.9318 0.636004C24.8454 0.544437 25.143 1.26344 25.2377 1.71503L28.9544 16.3688L32.4048 1.71503C32.46 1.37998 32.7107 0.563167 33.7367 0.649531H35.5223C35.7481 0.630801 36.6783 0.597504 36.8417 1.72856L40.3191 16.5696L44.1555 1.72856C44.2055 1.50173 44.4386 0.545478 45.4749 0.649531H47.5269C47.6153 0.636004 48.1668 0.565247 48.0731 1.54231C48.0284 1.7348 48.428 0.433101 42.5843 19.2209C42.4647 19.7943 42.0828 20.3749 41.265 20.3H39.3202C38.1819 20.4196 38.0185 19.2948 38.0008 19.1814L34.5504 4.91258L31.1395 19.1668C31.1229 19.2802 30.9595 20.405 29.8202 20.2854H27.916V20.2864ZM56.3724 20.8722C55.7606 20.8733 52.8429 20.841 50.4039 19.5934C50.161 19.4906 49.954 19.3179 49.8094 19.0972C49.6647 18.8766 49.5888 18.618 49.5913 18.3542V17.2356C49.5913 16.3563 50.2364 16.5176 50.5101 16.6227C51.5548 17.0452 52.2249 17.3657 53.5078 17.6216C57.3214 18.4051 58.9987 17.3823 59.4097 17.1555C60.778 16.3428 60.8862 14.4834 59.956 13.5188C58.8655 12.6042 58.3453 12.5699 54.4277 11.3337C53.9449 11.1995 49.8805 9.91754 49.8712 5.88548C49.8077 2.94702 52.4777 0.0397794 57.1049 0.0637117C58.4233 0.0626711 61.9361 0.493451 62.8872 1.68902C63.0276 1.90649 63.0974 2.16246 63.087 2.42155V3.47353C63.087 3.93553 62.9184 4.16652 62.5802 4.16652C61.778 4.07704 60.3545 3.00425 57.465 3.04795C56.748 3.01049 53.3143 3.14264 53.4683 5.64616C53.4236 7.61901 56.2371 8.35882 56.5587 8.44415C60.3524 9.58561 61.6208 9.77498 63.1265 11.522C64.91 13.8372 63.9485 16.5478 63.5791 17.2907C61.5938 21.1917 56.4598 20.8743 56.3724 20.8722V20.8722ZM60.5553 31.7833C53.2685 37.1649 42.6905 40.0295 33.6587 40.0295C21.472 40.1098 9.69609 35.6288 0.645755 27.4671C-0.0337117 26.8543 0.565634 26.0145 1.39182 26.4817C11.4313 32.2246 22.7982 35.2421 34.3642 35.2347C43.0013 35.1884 51.5443 33.4362 59.5023 30.0789C60.7281 29.5586 61.7676 30.8905 60.5553 31.7833V31.7833ZM63.5927 28.3193C62.6603 27.1206 57.4244 27.7595 55.0801 28.0394C54.3736 28.1195 54.2539 27.5067 54.8938 27.054C59.0632 24.1229 65.911 24.9626 66.6976 25.948C67.4832 26.9333 66.4843 33.7946 62.5813 37.0723C61.9819 37.579 61.4086 37.3116 61.675 36.6457C62.5532 34.4345 64.525 29.5191 63.5927 28.3193Z" fill="#AEB3B7"/>
</svg>
