<svg width="24" height="26" viewBox="0 0 24 26" fill="none" xmlns="http://www.w3.org/2000/svg">
<path fill-rule="evenodd" clip-rule="evenodd" d="M4.03764 2.0062C4.03764 0.897623 3.13431 -0.000252724 2.01882 -0.000252724C0.903383 -0.000252724 0 0.897623 0 2.0062C0 3.11419 0.903383 4.0127 2.01882 4.0127C3.13431 4.0127 4.03764 3.11419 4.03764 2.0062Z" fill="black"/>
<path fill-rule="evenodd" clip-rule="evenodd" d="M4.03764 7.52429C4.03764 6.41572 3.13431 5.51781 2.01882 5.51781C0.903383 5.51781 0 6.41572 0 7.52429C0 8.63301 0.903383 9.53076 2.01882 9.53076C3.13431 9.53076 4.03764 8.63301 4.03764 7.52429Z" fill="black"/>
<path fill-rule="evenodd" clip-rule="evenodd" d="M4.03764 13.0423C4.03764 11.9335 3.13431 11.0359 2.01882 11.0359C0.903383 11.0359 0 11.9335 0 13.0423C0 14.1502 0.903383 15.0488 2.01882 15.0488C3.13431 15.0488 4.03764 14.1502 4.03764 13.0423Z" fill="black"/>
<path fill-rule="evenodd" clip-rule="evenodd" d="M4.03764 18.4345C4.03764 17.3263 3.13368 16.428 2.01882 16.428C0.903961 16.428 0 17.3263 0 18.4345C0 19.5421 0.903961 20.4409 2.01882 20.4409C3.13368 20.4409 4.03764 19.5421 4.03764 18.4345Z" fill="black"/>
<path fill-rule="evenodd" clip-rule="evenodd" d="M4.03764 23.9526C4.03764 22.8446 3.13368 21.946 2.01882 21.946C0.903961 21.946 0 22.8446 0 23.9526C0 25.0604 0.903961 25.959 2.01882 25.959C3.13368 25.959 4.03764 25.0604 4.03764 23.9526Z" fill="black"/>
<path fill-rule="evenodd" clip-rule="evenodd" d="M9.84182 1.69273C9.84182 0.756927 9.07949 -0.000182629 8.13852 -0.000182629C7.19739 -0.000182629 6.43506 0.756927 6.43506 1.69273C6.43506 2.62743 7.19739 3.38574 8.13852 3.38574C9.07949 3.38574 9.84182 2.62743 9.84182 1.69273Z" fill="black"/>
<path fill-rule="evenodd" clip-rule="evenodd" d="M9.84182 7.33694C9.84182 6.40154 9.07949 5.64337 8.13852 5.64337C7.19739 5.64337 6.43506 6.40154 6.43506 7.33694C6.43506 8.27102 7.19739 9.0293 8.13852 9.0293C9.07949 9.0293 9.84182 8.27102 9.84182 7.33694Z" fill="black"/>
<path fill-rule="evenodd" clip-rule="evenodd" d="M9.84182 12.9794C9.84182 12.0439 9.07949 11.2864 8.13852 11.2864C7.19739 11.2864 6.43506 12.0439 6.43506 12.9794C6.43506 13.9145 7.19739 14.6724 8.13852 14.6724C9.07949 14.6724 9.84182 13.9145 9.84182 12.9794Z" fill="black"/>
<path fill-rule="evenodd" clip-rule="evenodd" d="M9.84182 18.622C9.84182 17.6872 9.07949 16.9295 8.13852 16.9295C7.19739 16.9295 6.43506 17.6872 6.43506 18.622C6.43506 19.5572 7.19739 20.3154 8.13852 20.3154C9.07949 20.3154 9.84182 19.5572 9.84182 18.622Z" fill="black"/>
<path fill-rule="evenodd" clip-rule="evenodd" d="M9.84182 24.2661C9.84182 23.3314 9.07949 22.5731 8.13852 22.5731C7.19739 22.5731 6.43506 23.3314 6.43506 24.2661C6.43506 25.2012 7.19739 25.959 8.13852 25.959C9.07949 25.959 9.84182 25.2012 9.84182 24.2661Z" fill="black"/>
<path fill-rule="evenodd" clip-rule="evenodd" d="M14.8887 1.75494C14.8887 0.992807 14.2677 0.375864 13.5007 0.375864C12.7337 0.375864 12.1128 0.992807 12.1128 1.75494C12.1128 2.51655 12.7337 3.13477 13.5007 3.13477C14.2677 3.13477 14.8887 2.51655 14.8887 1.75494Z" fill="black"/>
<path fill-rule="evenodd" clip-rule="evenodd" d="M14.8887 7.39773C14.8887 6.63633 14.2677 6.01942 13.5007 6.01942C12.7337 6.01942 12.1128 6.63633 12.1128 7.39773C12.1128 8.16035 12.7337 8.77832 13.5007 8.77832C14.2677 8.77832 14.8887 8.16035 14.8887 7.39773Z" fill="black"/>
<path fill-rule="evenodd" clip-rule="evenodd" d="M14.8887 13.0426C14.8887 12.2798 14.2677 11.663 13.5007 11.663C12.7337 11.663 12.1128 12.2798 12.1128 13.0426C12.1128 13.8047 12.7337 14.4219 13.5007 14.4219C14.2677 14.4219 14.8887 13.8047 14.8887 13.0426Z" fill="black"/>
<path fill-rule="evenodd" clip-rule="evenodd" d="M14.8887 18.5611C14.8887 17.7981 14.2677 17.1806 13.5007 17.1806C12.7337 17.1806 12.1128 17.7981 12.1128 18.5611C12.1128 19.3221 12.7337 19.9395 13.5007 19.9395C14.2677 19.9395 14.8887 19.3221 14.8887 18.5611Z" fill="black"/>
<path fill-rule="evenodd" clip-rule="evenodd" d="M14.8887 24.2034C14.8887 23.4411 14.2677 22.8236 13.5007 22.8236C12.7337 22.8236 12.1128 23.4411 12.1128 24.2034C12.1128 24.9653 12.7337 25.5825 13.5007 25.5825C14.2677 25.5825 14.8887 24.9653 14.8887 24.2034Z" fill="black"/>
<path fill-rule="evenodd" clip-rule="evenodd" d="M19.9358 7.46095C19.9358 6.73464 19.3429 6.14482 18.6113 6.14482C17.879 6.14482 17.2861 6.73464 17.2861 7.46095C17.2861 8.1885 17.879 8.77832 18.6113 8.77832C19.3429 8.77832 19.9358 8.1885 19.9358 7.46095Z" fill="black"/>
<path fill-rule="evenodd" clip-rule="evenodd" d="M19.9358 12.9793C19.9358 12.2517 19.3429 11.6624 18.6113 11.6624C17.879 11.6624 17.2861 12.2517 17.2861 12.9793C17.2861 13.7067 17.879 14.2959 18.6113 14.2959C19.3429 14.2959 19.9358 13.7067 19.9358 12.9793Z" fill="black"/>
<path fill-rule="evenodd" clip-rule="evenodd" d="M19.9358 18.4973C19.9358 17.7685 19.3429 17.1805 18.6113 17.1805C17.879 17.1805 17.2861 17.7685 17.2861 18.4973C17.2861 19.2231 17.879 19.814 18.6113 19.814C19.3429 19.814 19.9358 19.2231 19.9358 18.4973Z" fill="black"/>
<path fill-rule="evenodd" clip-rule="evenodd" d="M19.4313 2.32028C19.4313 1.86916 19.0622 1.50451 18.6112 1.50451C18.1587 1.50451 17.791 1.86916 17.791 2.32028C17.791 2.76958 18.1587 3.13477 18.6112 3.13477C19.0622 3.13477 19.4313 2.76958 19.4313 2.32028Z" fill="black"/>
<path fill-rule="evenodd" clip-rule="evenodd" d="M19.4311 23.638C19.4311 23.1889 19.0619 22.8238 18.6109 22.8238C18.1585 22.8238 17.7908 23.1889 17.7908 23.638C17.7908 24.0894 18.1585 24.4541 18.6109 24.4541C19.0619 24.4541 19.4311 24.0894 19.4311 23.638Z" fill="black"/>
<path fill-rule="evenodd" clip-rule="evenodd" d="M23.9735 12.9795C23.9735 12.5299 23.6062 12.1642 23.1535 12.1642C22.7006 12.1642 22.3333 12.5299 22.3333 12.9795C22.3333 13.4289 22.7006 13.7944 23.1535 13.7944C23.6062 13.7944 23.9735 13.4289 23.9735 12.9795Z" fill="black"/>
<path fill-rule="evenodd" clip-rule="evenodd" d="M23.9735 18.6222C23.9735 18.172 23.6062 17.8072 23.1535 17.8072C22.7006 17.8072 22.3333 18.172 22.3333 18.6222C22.3333 19.0725 22.7006 19.4375 23.1535 19.4375C23.6062 19.4375 23.9735 19.0725 23.9735 18.6222Z" fill="black"/>
<path fill-rule="evenodd" clip-rule="evenodd" d="M23.9735 7.33577C23.9735 6.88599 23.6062 6.52111 23.1535 6.52111C22.7006 6.52111 22.3333 6.88599 22.3333 7.33577C22.3333 7.78701 22.7006 8.15137 23.1535 8.15137C23.6062 8.15137 23.9735 7.78701 23.9735 7.33577Z" fill="black"/>
</svg>
