<svg width="41" height="41" viewBox="0 0 41 41" fill="none" xmlns="http://www.w3.org/2000/svg">
<path d="M16.2533 24.0225C15.1404 24.0225 14.2452 23.1273 14.2452 22.0386C14.2452 20.9257 15.1404 20.0305 16.2533 20.0305C17.35 20.0305 18.2371 20.9257 18.2371 22.0386C18.2371 23.1354 17.342 24.0225 16.2533 24.0225ZM40.6484 20.0305C40.6484 31.0789 31.6968 40.0305 20.6484 40.0305C9.60005 40.0305 0.648438 31.0789 0.648438 20.0305C0.648438 8.98213 9.60005 0.0305176 20.6484 0.0305176C31.6968 0.0305176 40.6484 8.98213 40.6484 20.0305ZM29.9791 16.7079C29.221 16.7079 28.5517 17.0225 28.0597 17.5144C26.2533 16.2644 23.8178 15.4579 21.1162 15.3692L22.5194 9.05471L26.9871 10.0628C26.9871 11.1595 27.8823 12.0466 28.971 12.0466C30.0839 12.0466 30.9791 11.1354 30.9791 10.0386C30.9791 8.94181 30.0839 8.03052 28.971 8.03052C28.1888 8.03052 27.5194 8.49826 27.1888 9.14342L22.2533 8.04665C22.0113 7.98213 21.7613 8.15955 21.6968 8.40149L20.1565 15.3692C17.4791 15.4821 15.0678 16.2805 13.2613 17.5305C12.7694 17.0144 12.0759 16.7079 11.3178 16.7079C8.50328 16.7079 7.58392 20.4902 10.1565 21.7725C10.0678 22.1757 10.0194 22.595 10.0194 23.0225C10.0194 27.2644 14.7936 30.6999 20.6646 30.6999C26.5597 30.6999 31.3339 27.2644 31.3339 23.0225C31.3339 22.595 31.2855 22.1515 31.1807 21.7483C33.7049 20.4579 32.7775 16.7079 29.9791 16.7079ZM24.4226 26.0789C22.9549 27.5466 18.2855 27.5225 16.8742 26.0789C16.6968 25.9015 16.3823 25.9015 16.2049 26.0789C16.0033 26.2805 16.0033 26.595 16.2049 26.7725C18.0436 28.6112 23.2452 28.6112 25.092 26.7725C25.2936 26.595 25.2936 26.2805 25.092 26.0789C24.9146 25.9015 24.6 25.9015 24.4226 26.0789ZM25.0436 20.0305C23.9468 20.0305 23.0597 20.9257 23.0597 22.0386C23.0597 23.1354 23.9549 24.0225 25.0436 24.0225C26.1565 24.0225 27.0517 23.1273 27.0517 22.0386C27.0517 20.9257 26.1646 20.0305 25.0436 20.0305Z" fill="#AEB3B7"/>
</svg>
