<svg width="23" height="23" viewBox="0 0 23 23" fill="none" xmlns="http://www.w3.org/2000/svg">
<path fill-rule="evenodd" clip-rule="evenodd" d="M20 0H2.4C1.07452 0 0 1.07452 0 2.4V20C0 21.3255 1.07452 22.4 2.4 22.4H20C21.3255 22.4 22.4 21.3255 22.4 20V2.4C22.4 1.07452 21.3255 0 20 0ZM15.915 4.9625C16.6105 5.23694 17.1611 5.7875 17.4355 6.483L17.4375 6.4835C17.7957 7.38743 17.7759 9.35555 17.7631 10.6315L17.7631 10.6322C17.7609 10.843 17.759 11.0349 17.759 11.2C17.759 11.3651 17.7609 11.5572 17.7631 11.7682V11.7683V11.7684V11.7685V11.7686C17.7759 13.0452 17.7957 15.0155 17.4375 15.9165C17.1631 16.612 16.6125 17.1626 15.917 17.437C15.014 17.7955 13.0493 17.7756 11.7729 17.7626C11.5609 17.7605 11.368 17.7585 11.202 17.7585C11.0391 17.7585 10.8502 17.7603 10.6428 17.7623C9.36612 17.7746 7.38977 17.7936 6.4865 17.437C5.791 17.1626 5.24044 16.612 4.966 15.9165C4.60777 15.0093 4.62662 13.0299 4.63876 11.7543C4.64072 11.5486 4.6425 11.3612 4.6425 11.1995C4.6425 11.0374 4.64071 10.8492 4.63873 10.6427C4.62656 9.3665 4.60767 7.38674 4.964 6.483C5.23844 5.7875 5.789 5.23694 6.4845 4.9625C7.38757 4.60402 9.35308 4.62395 10.6293 4.63689H10.6294H10.6294H10.6294H10.6294C10.8413 4.63904 11.0342 4.641 11.2 4.641C11.3627 4.641 11.5515 4.63918 11.7587 4.63719H11.7588H11.7588H11.7589H11.7589C13.0353 4.62492 15.0117 4.60592 15.915 4.9625ZM8.534 11.2007C8.53363 9.72785 9.72719 8.53355 11.2 8.533C12.6729 8.53355 13.8669 9.72712 13.868 11.2C13.868 12.6728 12.6741 13.8668 11.2013 13.867C9.72852 13.8672 8.53437 12.6735 8.534 11.2007ZM11.2 15.3C8.93563 15.3 7.1 13.4644 7.1 11.2C7.1 8.93563 8.93563 7.1 11.2 7.1C13.4644 7.1 15.3 8.93563 15.3 11.2C15.3013 12.2878 14.8698 13.3314 14.1006 14.1006C13.3314 14.8698 12.2878 15.3013 11.2 15.3ZM14.5845 7.29457C14.7328 7.65216 15.0819 7.8852 15.469 7.885L15.471 7.887C15.7249 7.88687 15.9683 7.78565 16.1474 7.6057C16.3265 7.42575 16.4266 7.18189 16.4255 6.928C16.4255 6.54088 16.1923 6.1919 15.8346 6.0438C15.4769 5.8957 15.0653 5.97767 14.7916 6.25148C14.518 6.52528 14.4362 6.93698 14.5845 7.29457ZM17.8515 17.85C18.787 16.917 19.0795 15.7815 19.144 14.5C19.2185 13.178 19.2185 9.222 19.144 7.906C19.083 6.6245 18.785 5.4885 17.8515 4.5535C16.918 3.6185 15.783 3.3255 14.5015 3.261C13.181 3.1865 9.222 3.1865 7.9015 3.261C6.625 3.322 5.4905 3.617 4.5515 4.55C3.6125 5.483 3.3235 6.6185 3.259 7.9C3.1845 9.2195 3.1845 13.179 3.259 14.5C3.32 15.779 3.6145 16.915 4.5515 17.85C5.4885 18.785 6.62 19.078 7.9015 19.1425C9.222 19.217 13.181 19.217 14.5015 19.1425C15.7815 19.0815 16.916 18.783 17.8515 17.85Z" fill="white"/>
</svg>
