<svg width="21" height="21" viewBox="0 0 21 21" fill="none" xmlns="http://www.w3.org/2000/svg">
<path fill-rule="evenodd" clip-rule="evenodd" d="M17.7804 0.1408C18.0124 0.044 18.2468 0 18.476 0C19.7656 0 20.8824 1.3956 20.3396 2.6992L12.6636 19.3304C12.2932 20.124 11.5952 20.48 10.9032 20.48C9.92198 20.48 8.95358 19.7632 8.95358 18.5628V11.5264H1.91718C-0.129616 11.5264 -0.769216 8.712 1.14958 7.8164L17.7804 0.1408ZM11.504 18.7896L19.178 2.1632C19.2536 1.9792 19.1684 1.7744 19.0808 1.6428C18.936 1.4256 18.6932 1.2796 18.4764 1.2796C18.4076 1.2796 18.3412 1.2932 18.2728 1.3216L1.68558 8.978C1.24678 9.1828 1.25358 9.5448 1.29758 9.742C1.33158 9.894 1.45918 10.2472 1.91718 10.2472H10.2324V18.5632C10.2324 19.0676 10.6708 19.2008 10.9028 19.2008C11.1744 19.2008 11.3768 19.0624 11.504 18.7896Z" fill="#B15F6C"/>
</svg>
