<svg width="16" height="26" viewBox="0 0 16 26" fill="none" xmlns="http://www.w3.org/2000/svg">
<path fill-rule="evenodd" clip-rule="evenodd" d="M16 2.4V23.2C16 24.525 14.925 25.6 13.6 25.6H2.4C1.075 25.6 0 24.525 0 23.2V2.4C0 1.075 1.075 0 2.4 0H13.6C14.925 0 16 1.075 16 2.4ZM9.8 22.4H6.2C5.87 22.4 5.6 22.13 5.6 21.8V21.4C5.6 21.07 5.87 20.8 6.2 20.8H9.8C10.13 20.8 10.4 21.07 10.4 21.4V21.8C10.4 22.13 10.13 22.4 9.8 22.4ZM13.6 1.6C14.04 1.6 14.4 1.96 14.4 2.4V23.2C14.4 23.64 14.04 24 13.6 24H2.4C1.96 24 1.6 23.64 1.6 23.2V2.4C1.6 1.96 1.96 1.6 2.4 1.6H13.6Z" fill="#B15F6C"/>
</svg>
