<svg width="23" height="23" viewBox="0 0 23 23" fill="none" xmlns="http://www.w3.org/2000/svg">
<path fill-rule="evenodd" clip-rule="evenodd" d="M2.4 0H20C21.325 0 22.4 1.075 22.4 2.4V20C22.4 21.325 21.325 22.4 20 22.4H2.4C1.075 22.4 0 21.325 0 20V2.4C0 1.075 1.075 0 2.4 0ZM17.565 8.365C17.565 8.225 17.565 8.08 17.555 7.94C18.195 7.475 18.755 6.895 19.2 6.24C18.61 6.495 17.97 6.68 17.31 6.75C17.99 6.345 18.505 5.705 18.75 4.945C18.12 5.32 17.41 5.595 16.67 5.735C16.07 5.095 15.22 4.7 14.275 4.7C12.275 4.7 10.61 6.505 11.075 8.73C8.355 8.59 5.93 7.29 4.315 5.3C4.03 5.785 3.87 6.345 3.87 6.955C3.8682 8.05222 4.41642 9.07732 5.33 9.685C4.795 9.665 4.285 9.515 3.85 9.27V9.31C3.85 10.905 4.975 12.225 6.475 12.53C5.955 12.665 5.5 12.665 4.995 12.59C5.41 13.89 6.62 14.835 8.06 14.865C6.935 15.745 5.525 16.265 3.99 16.265C3.72 16.265 3.465 16.255 3.2 16.225C4.65 17.155 6.375 17.695 8.235 17.695C14.265 17.695 17.565 12.7 17.565 8.365Z" fill="white"/>
</svg>
