<svg width="23" height="23" viewBox="0 0 23 23" fill="none" xmlns="http://www.w3.org/2000/svg">
<path fill-rule="evenodd" clip-rule="evenodd" d="M22.4 2.4V20C22.4 21.325 21.325 22.4 20 22.4H2.4C1.075 22.4 0 21.325 0 20V2.4C0 1.075 1.075 0 2.4 0H20C21.325 0 22.4 1.075 22.4 2.4ZM9.34 8.505L14.1 11.21L9.34 13.915V8.505ZM19.92 6.805C20.3 8.235 20.3 11.215 20.3 11.215C20.3 11.215 20.3 14.195 19.92 15.62C19.71 16.41 19.095 17.005 18.31 17.215C16.895 17.6 11.2 17.6 11.2 17.6C11.2 17.6 5.505 17.6 4.09 17.22C3.305 17.01 2.69 16.415 2.48 15.625C2.1 14.195 2.1 11.215 2.1 11.215C2.1 11.215 2.1 8.23 2.48 6.805C2.69 6.015 3.305 5.395 4.09 5.185C5.505 4.8 11.2 4.8 11.2 4.8C11.2 4.8 16.895 4.8 18.31 5.185C19.095 5.395 19.71 6.015 19.92 6.805Z" fill="white"/>
</svg>
