<svg width="61" height="49" viewBox="0 0 61 49" fill="none" xmlns="http://www.w3.org/2000/svg">
<rect width="61" height="49" rx="5" fill="#9B2236"/>
<path fill-rule="evenodd" clip-rule="evenodd" d="M37.9764 32.3478L45.7866 40.158C46.0711 40.4425 46.0711 40.9026 45.7866 41.1872L45.1872 41.7866C44.9026 42.0711 44.4425 42.0711 44.158 41.7866L36.3478 33.9764C36.2146 33.8372 36.1359 33.6555 36.1359 33.4618V32.8442C33.8897 34.9148 30.8928 36.1863 27.5931 36.1863C20.6366 36.1863 15 30.5496 15 23.5931C15 16.6366 20.6366 11 27.5931 11C34.5496 11 40.1863 16.6366 40.1863 23.5931C40.1863 26.8928 38.9148 29.8897 36.8382 32.1359H37.4618C37.6555 32.1359 37.8372 32.2085 37.9764 32.3478ZM16.9374 23.5931C16.9374 29.4841 21.7022 34.2489 27.5931 34.2489C33.4841 34.2489 38.2489 29.4841 38.2489 23.5931C38.2489 17.7022 33.4841 12.9374 27.5931 12.9374C21.7022 12.9374 16.9374 17.7022 16.9374 23.5931Z" fill="black"/>
</svg>
